<svg xmlns="http://www.w3.org/2000/svg" width="768" height="512" viewBox="0 0 768 512">
  <defs>
    <filter id="glow" x="-60%" y="-60%" width="220%" height="220%"><feGaussianBlur stdDeviation="5" result="b"/><feMerge><feMergeNode in="b"/><feMergeNode in="SourceGraphic"/></feMerge></filter>
    <path id="heart" d="M64 103 C28 75 18 48 35 31 C49 18 61 28 64 39 C67 28 79 18 93 31 C110 48 100 75 64 103Z"/>
  </defs>
  <g font-family="sans-serif" font-size="10" text-anchor="middle" fill="none" stroke-linejoin="round">
    <g transform="translate(0 0)" filter="url(#glow)"><use href="#heart" fill="#ff3c82" stroke="#ffd4e4" stroke-width="3"/><circle cx="64" cy="64" r="38" stroke="#4fe3ff" stroke-width="4" opacity=".8"/></g>
    <g transform="translate(128 0)" filter="url(#glow)"><polygon points="64,18 94,57 72,110 30,93 39,43" fill="#ff402d" stroke="#ffd1c8" stroke-width="3"/></g>
    <g transform="translate(256 0)" filter="url(#glow)"><circle cx="64" cy="64" r="35" fill="#d91834" stroke="#ffb0b9" stroke-width="3"/><circle cx="54" cy="52" r="7" fill="#260018"/><circle cx="76" cy="52" r="7" fill="#260018"/></g>
    <g transform="translate(384 0)" filter="url(#glow)"><polygon points="64,18 82,34 106,38 94,62 104,88 78,86 64,110 50,86 24,88 34,62 22,38 46,34" fill="#27a754" stroke="#c5ffd4" stroke-width="3"/><circle cx="64" cy="64" r="22" fill="#113c28" stroke="#80ffa2" stroke-width="3"/></g>
    <g transform="translate(512 0)" filter="url(#glow)"><polygon points="66,14 44,59 64,56 52,113 87,50 66,54" fill="#47e8ff" stroke="#e7fcff" stroke-width="3"/></g>
    <g transform="translate(640 0)" filter="url(#glow)"><polygon points="64,15 103,46 91,100 64,116 37,100 25,46" fill="#5f2abf" stroke="#e1c5ff" stroke-width="3"/><polygon points="64,34 82,62 64,91 46,62" fill="#13072c" stroke="#c98dff"/></g>
    <g transform="translate(0 128) scale(1.05)" filter="url(#glow)"><use href="#heart" fill="#9c123a" stroke="#ffd6e4" stroke-width="3"/><path d="M64 28 L54 62 L70 62 L58 101" stroke="#ffe8ef" stroke-width="4"/></g>
    <g transform="translate(128 128)" filter="url(#glow)"><circle cx="64" cy="64" r="30" fill="#ffbd28" stroke="#fff0a0" stroke-width="4"/><ellipse cx="64" cy="64" rx="14" ry="22" stroke="#8c4a06" stroke-width="5"/></g>
    <g transform="translate(256 128)" filter="url(#glow)"><polygon points="64,20 91,64 64,108 37,64" fill="#35e875" stroke="#d9ffe4" stroke-width="3"/><line x1="64" y1="22" x2="64" y2="106" stroke="#178c48" stroke-width="3"/></g>
    <g transform="translate(384 128)" filter="url(#glow)"><polygon points="64,18 99,35 93,82 64,111 35,82 29,35" fill="#239bd8" stroke="#dbfbff" stroke-width="4"/></g>
    <g transform="translate(512 128)" filter="url(#glow)"><polygon points="20,64 76,50 108,64 76,78" fill="#ffe15a" stroke="#ffffff" stroke-width="2"/></g>
    <g transform="translate(640 128)" filter="url(#glow)"><polygon points="28,50 92,62 28,78 42,64" fill="#78ff82" stroke="#ffffff" stroke-width="2"/><polygon points="28,50 17,40 24,61" fill="#ffec8a"/></g>
    <g transform="translate(0 256)" filter="url(#glow)"><circle cx="64" cy="64" r="27" fill="#ff7428" stroke="#ffffff" stroke-width="3"/></g>
    <g transform="translate(128 256)" filter="url(#glow)"><polygon points="21,63 78,28 107,36 55,94" fill="#45ddff" stroke="#ffffff" stroke-width="2"/></g>
    <g transform="translate(256 256)" filter="url(#glow)"><polygon points="68,14 38,61 61,58 49,114 91,50 67,54" fill="#5ae9ff" stroke="#ffffff" stroke-width="2"/></g>
    <g transform="translate(384 256)" filter="url(#glow)"><circle cx="64" cy="64" r="31" fill="#9d62ff" stroke="#e7d6ff" stroke-width="3"/><circle cx="64" cy="64" r="15" fill="#160026"/></g>
  </g>
</svg>
